<mxfile host="65bd71144e" modified="2020-10-14T11:00:34.051Z" agent="5.0 (Windows NT 10.0; Win64; x64) AppleWebKit/537.36 (KHTML, like Gecko) Code/1.50.0 Chrome/83.0.4103.122 Electron/9.2.1 Safari/537.36" etag="G-0KX-PB82ABbgKS20-x" version="13.6.5">
    <diagram id="6hGFLwfOUW9BJ-s0fimq" name="Page-1">
        <mxGraphModel dx="526" dy="619" grid="1" gridSize="10" guides="1" tooltips="1" connect="1" arrows="1" fold="1" page="1" pageScale="1" pageWidth="800" pageHeight="400" math="0" shadow="0">
            <root>
                <mxCell id="0"/>
                <mxCell id="1" parent="0"/>
                <mxCell id="72" value="" style="rounded=0;whiteSpace=wrap;html=1;strokeWidth=3;fillColor=none;" parent="1" vertex="1">
                    <mxGeometry x="60" y="40" width="170" height="320" as="geometry"/>
                </mxCell>
                <mxCell id="138" value="Main" style="rounded=0;whiteSpace=wrap;html=1;fontFamily=微軟正黑體;fontSize=24;fontStyle=1;strokeWidth=3;shadow=0;glass=0;comic=0;" parent="1" vertex="1">
                    <mxGeometry x="70" y="280" width="150" height="70" as="geometry"/>
                </mxCell>
                <mxCell id="147" value="funcA" style="rounded=0;whiteSpace=wrap;html=1;fontFamily=微軟正黑體;fontSize=24;fontStyle=1;strokeWidth=3;shadow=0;glass=0;comic=0;" parent="1" vertex="1">
                    <mxGeometry x="70" y="200" width="150" height="70" as="geometry"/>
                </mxCell>
            </root>
        </mxGraphModel>
    </diagram>
</mxfile>